name rise30.3154peak39.0474fall46.5389.mot
datacolumns 19
datarows 15
range 15.16660800000000 15.18994800000000
endheader
time	ground_force1_vx	ground_force1_vy	ground_force1_vz	ground_force1_px	ground_force1_py	ground_force1_pz	ground_force2_vx	ground_force2_vy	ground_force2_vz	ground_force2_px	ground_force2_py	ground_force2_pz	ground_torque1_x	ground_torque1_y	ground_torque1_z	ground_torque2_x	ground_torque2_y	ground_torque2_z	
15.16660800000000	54.23340400000000	703.59793000000002	47.90842000000000	0.37352500000000	0.00000000000000	0.08797300000000	0.00000000000000	0.00000000000000	0.00000000000000	0.00000000000000	0.00000000000000	0.00000000000000	0.00000000000000	24.13860000000000	0.00000000000000	0.00000000000000	0.00000000000000	0.00000000000000	
15.16827700000000	53.57119100000000	706.66326200000003	47.93736800000000	0.37168900000000	0.00000000000000	0.08801000000000	0.00000000000000	0.00000000000000	0.00000000000000	0.00000000000000	0.00000000000000	0.00000000000000	0.00000000000000	24.11546300000000	0.00000000000000	0.00000000000000	0.00000000000000	0.00000000000000	
15.16994700000000	52.91949300000000	709.71868099999995	47.97426200000000	0.36990700000000	0.00000000000000	0.08804600000000	0.00000000000000	0.00000000000000	0.00000000000000	0.00000000000000	0.00000000000000	0.00000000000000	0.00000000000000	24.10063400000000	0.00000000000000	0.00000000000000	0.00000000000000	0.00000000000000	
15.17161700000000	52.27864900000000	712.75989600000003	48.01909000000000	0.36818200000000	0.00000000000000	0.08807900000000	0.00000000000000	0.00000000000000	0.00000000000000	0.00000000000000	0.00000000000000	0.00000000000000	0.00000000000000	24.09416900000000	0.00000000000000	0.00000000000000	0.00000000000000	0.00000000000000	
15.17328900000000	51.64890200000000	715.78246100000001	48.07173900000000	0.36651600000000	0.00000000000000	0.08811000000000	0.00000000000000	0.00000000000000	0.00000000000000	0.00000000000000	0.00000000000000	0.00000000000000	0.00000000000000	24.09604500000000	0.00000000000000	0.00000000000000	0.00000000000000	0.00000000000000	
15.17494400000000	51.03041400000000	718.78179100000000	48.13200100000000	0.36491000000000	0.00000000000000	0.08813800000000	0.00000000000000	0.00000000000000	0.00000000000000	0.00000000000000	0.00000000000000	0.00000000000000	0.00000000000000	24.10617100000000	0.00000000000000	0.00000000000000	0.00000000000000	0.00000000000000	
15.17661200000000	50.42325900000000	721.75319900000000	48.19957500000000	0.36336600000000	0.00000000000000	0.08816400000000	0.00000000000000	0.00000000000000	0.00000000000000	0.00000000000000	0.00000000000000	0.00000000000000	0.00000000000000	24.12438300000000	0.00000000000000	0.00000000000000	0.00000000000000	0.00000000000000	
15.17827500000000	49.82743200000000	724.69191400000000	48.27407400000000	0.36188500000000	0.00000000000000	0.08818600000000	0.00000000000000	0.00000000000000	0.00000000000000	0.00000000000000	0.00000000000000	0.00000000000000	0.00000000000000	24.15045400000000	0.00000000000000	0.00000000000000	0.00000000000000	0.00000000000000	
15.17994600000000	49.24285500000000	727.59311500000001	48.35502900000000	0.36046900000000	0.00000000000000	0.08820600000000	0.00000000000000	0.00000000000000	0.00000000000000	0.00000000000000	0.00000000000000	0.00000000000000	0.00000000000000	24.18409600000000	0.00000000000000	0.00000000000000	0.00000000000000	0.00000000000000	
15.18161100000000	48.66937600000000	730.45195100000001	48.44189500000000	0.35911800000000	0.00000000000000	0.08822200000000	0.00000000000000	0.00000000000000	0.00000000000000	0.00000000000000	0.00000000000000	0.00000000000000	0.00000000000000	24.22496100000000	0.00000000000000	0.00000000000000	0.00000000000000	0.00000000000000	
15.18327600000000	48.10678100000000	733.26357399999995	48.53405800000000	0.35783200000000	0.00000000000000	0.08823600000000	0.00000000000000	0.00000000000000	0.00000000000000	0.00000000000000	0.00000000000000	0.00000000000000	0.00000000000000	24.27265200000000	0.00000000000000	0.00000000000000	0.00000000000000	0.00000000000000	
15.18494300000000	47.55479400000000	736.02315699999997	48.63083900000000	0.35661200000000	0.00000000000000	0.08824600000000	0.00000000000000	0.00000000000000	0.00000000000000	0.00000000000000	0.00000000000000	0.00000000000000	0.00000000000000	24.32671800000000	0.00000000000000	0.00000000000000	0.00000000000000	0.00000000000000	
15.18661600000000	47.01308100000000	738.72592599999996	48.73150500000000	0.35545700000000	0.00000000000000	0.08825200000000	0.00000000000000	0.00000000000000	0.00000000000000	0.00000000000000	0.00000000000000	0.00000000000000	0.00000000000000	24.38666600000000	0.00000000000000	0.00000000000000	0.00000000000000	0.00000000000000	
15.18828200000000	46.48126300000000	741.36717999999996	48.83526900000000	0.35436700000000	0.00000000000000	0.08825500000000	0.00000000000000	0.00000000000000	0.00000000000000	0.00000000000000	0.00000000000000	0.00000000000000	0.00000000000000	24.45196200000000	0.00000000000000	0.00000000000000	0.00000000000000	0.00000000000000	
15.18994800000000	45.95891000000000	743.94231600000001	48.94130500000000	0.35334100000000	0.00000000000000	0.08825500000000	0.00000000000000	0.00000000000000	0.00000000000000	0.00000000000000	0.00000000000000	0.00000000000000	0.00000000000000	24.52203500000000	0.00000000000000	0.00000000000000	0.00000000000000	0.00000000000000	
